<!DOCTYPE svg PUBLIC "-//W3C//DTD SVG 1.1//EN" "http://www.w3.org/Graphics/SVG/1.1/DTD/svg11.dtd">
<!-- Uploaded to: SVG Repo, www.svgrepo.com, Transformed by: SVG Repo Mixer Tools -->
<svg width="180px" height="180px" viewBox="0 0 16.00 16.00" xmlns="http://www.w3.org/2000/svg" fill="none" stroke="#ffea00" stroke-width="0.00016">
<g id="SVGRepo_bgCarrier" stroke-width="0"/>
<g id="SVGRepo_tracerCarrier" stroke-linecap="round" stroke-linejoin="round" stroke="#CCCCCC" stroke-width="0.736"/>
<g id="SVGRepo_iconCarrier"> <g fill="#ffea00"> <path d="M8 4a.75.75 0 01.75.75v3.5a.75.75 0 01-1.5 0v-3.5A.75.75 0 018 4zM8 10a1 1 0 100 2h.007a1 1 0 100-2H8z"/> <path fill-rule="evenodd" d="M0 8a8 8 0 1116 0A8 8 0 010 8zm8-6.5a6.5 6.5 0 100 13 6.5 6.5 0 000-13z" clip-rule="evenodd"/> </g> </g>
</svg>